HIERARCHY
ROOT hip
{
	OFFSET 0.000000 103.560692 0.219151
	CHANNELS 6 Xposition Yposition Zposition Zrotation Xrotation Yrotation
	JOINT pelvis
	{
		OFFSET 0.000000 1.955040 1.591925
		CHANNELS 3 Zrotation Xrotation Yrotation
		JOINT lThigh
		{
			OFFSET 8.341582 -7.629402 -0.646910
			CHANNELS 3 Zrotation Xrotation Yrotation
			JOINT lShin
			{
				OFFSET 2.185763 -45.093132 -0.705710
				CHANNELS 3 Zrotation Xrotation Yrotation
				JOINT lFoot
				{
					OFFSET 0.730976 -46.379768 -2.264282
					CHANNELS 3 Zrotation Xrotation Yrotation
					JOINT lToe
					{
						OFFSET 2.797621 -4.200020 10.742415
						CHANNELS 3 Zrotation Xrotation Yrotation
						JOINT lBigToe
						{
							OFFSET -2.433708 -0.269072 1.841711
							CHANNELS 3 Zrotation Xrotation Yrotation
							End Site
							{
								OFFSET -10.527346 -33.657166 -1.340707
							}
						}
					}
				}
			}
		}
		JOINT rThigh
		{
			OFFSET -8.341582 -7.629402 -0.646910
			CHANNELS 3 Zrotation Xrotation Yrotation
			JOINT rShin
			{
				OFFSET -2.185763 -45.093132 -0.705710
				CHANNELS 3 Zrotation Xrotation Yrotation
				JOINT rFoot
				{
					OFFSET -0.730976 -46.379768 -2.264282
					CHANNELS 3 Zrotation Xrotation Yrotation
					JOINT rToe
					{
						OFFSET -2.797621 -4.200019 10.742415
						CHANNELS 3 Zrotation Xrotation Yrotation
						JOINT rBigToe
						{
							OFFSET 2.433708 -0.269072 1.841711
							CHANNELS 3 Zrotation Xrotation Yrotation
							End Site
							{
								OFFSET 0.000000 24.298409 -0.425647
							}
						}
					}
				}
			}
		}
	}
	JOINT abdomen
	{
		OFFSET 0.000000 1.841293 -3.551421
		CHANNELS 3 Zrotation Xrotation Yrotation
		JOINT abdomen2
		{
			OFFSET 0.000000 5.439911 3.419600
			CHANNELS 3 Zrotation Xrotation Yrotation
			JOINT chest
			{
				OFFSET 0.000000 14.715073 -2.918270
				CHANNELS 3 Zrotation Xrotation Yrotation
				JOINT neck
				{
					OFFSET 0.000000 26.294655 -1.248052
					CHANNELS 3 Zrotation Xrotation Yrotation
					JOINT head
					{
						OFFSET 0.000000 8.807068 1.063695
						CHANNELS 3 Zrotation Xrotation Yrotation
						JOINT rEye
						{
							OFFSET -3.030866 6.632080 7.702687
							CHANNELS 3 Zrotation Xrotation Yrotation
							End Site
							{
								OFFSET 2.969555 -11.022598 8.626689
							}
						}
						JOINT lEye
						{
							OFFSET 3.030866 6.632080 7.702687
							CHANNELS 3 Zrotation Xrotation Yrotation
							End Site
							{
								OFFSET 0.000000 -15.881760 10.104412
							}
						}
						JOINT upperJaw
						{
							OFFSET 0.000000 1.922699 2.891887
							CHANNELS 3 Zrotation Xrotation Yrotation
							End Site
							{
								OFFSET 0.000000 -19.386169 10.230839
							}
						}
						JOINT lowerJaw
						{
							OFFSET 0.000000 1.857620 2.686640
							CHANNELS 3 Zrotation Xrotation Yrotation
							JOINT tongueBase
							{
								OFFSET 0.000000 -3.019135 2.746916
								CHANNELS 3 Zrotation Xrotation Yrotation
								JOINT tongue01
								{
									OFFSET 0.000000 0.664124 0.223355
									CHANNELS 3 Zrotation Xrotation Yrotation
									JOINT tongue02
									{
										OFFSET 0.000000 0.339737 0.715627
										CHANNELS 3 Zrotation Xrotation Yrotation
										JOINT tongue03
										{
											OFFSET 0.000000 0.123444 0.730634
											CHANNELS 3 Zrotation Xrotation Yrotation
											JOINT tongue04
											{
												OFFSET 0.000000 0.017212 0.737415
												CHANNELS 3 Zrotation Xrotation Yrotation
												JOINT tongue05
												{
													OFFSET 0.000000 -0.021011 0.632440
													CHANNELS 3 Zrotation Xrotation Yrotation
													JOINT tongueTip
													{
														OFFSET 0.000000 -0.014404 0.601796
														CHANNELS 3 Zrotation Xrotation Yrotation
														End Site
														{
															OFFSET -14.139406 -2.625778 0.472826
														}
													}
												}
											}
										}
									}
								}
							}
						}
					}
				}
				JOINT rCollar
				{
					OFFSET -2.109295 21.452370 3.768136
					CHANNELS 3 Zrotation Xrotation Yrotation
					JOINT rShldr
					{
						OFFSET -11.491621 -2.568573 -4.940255
						CHANNELS 3 Zrotation Xrotation Yrotation
						JOINT rForeArm
						{
							OFFSET -28.789030 -0.213806 2.098380
							CHANNELS 3 Zrotation Xrotation Yrotation
							JOINT rHand
							{
								OFFSET -22.260895 -0.869583 10.391586
								CHANNELS 3 Zrotation Xrotation Yrotation
								JOINT rThumb1
								{
									OFFSET -0.628075 0.137405 2.362409
									CHANNELS 3 Zrotation Xrotation Yrotation
									JOINT rThumb2
									{
										OFFSET 0.085205 -0.600235 3.826079
										CHANNELS 3 Zrotation Xrotation Yrotation
										JOINT rThumb3
										{
											OFFSET -1.255478 -0.879211 2.439162
											CHANNELS 3 Zrotation Xrotation Yrotation
											End Site
											{
												OFFSET -2.963715 0.538574 4.059553
											}
										}
									}
								}
								JOINT rCarpal1
								{
									OFFSET -0.855530 1.026047 1.621985
									CHANNELS 3 Zrotation Xrotation Yrotation
									JOINT rIndex1
									{
										OFFSET -3.951324 0.390884 3.873290
										CHANNELS 3 Zrotation Xrotation Yrotation
										JOINT rIndex2
										{
											OFFSET -3.071884 -1.259598 2.506104
											CHANNELS 3 Zrotation Xrotation Yrotation
											JOINT rIndex3
											{
												OFFSET -1.394112 -1.446640 1.203302
												CHANNELS 3 Zrotation Xrotation Yrotation
												End Site
												{
													OFFSET -3.392448 -1.258026 0.533405
												}
											}
										}
									}
									JOINT rMid1
									{
										OFFSET -5.422974 0.107910 2.002650
										CHANNELS 3 Zrotation Xrotation Yrotation
										JOINT rMid2
										{
											OFFSET -3.599533 -1.323776 2.090647
											CHANNELS 3 Zrotation Xrotation Yrotation
											JOINT rMid3
											{
												OFFSET -1.360191 -1.598495 1.068055
												CHANNELS 3 Zrotation Xrotation Yrotation
												End Site
												{
													OFFSET -4.087769 -0.460876 0.069540
												}
											}
										}
									}
								}
								JOINT rCarpal2
								{
									OFFSET -1.942749 0.556229 -0.337217
									CHANNELS 3 Zrotation Xrotation Yrotation
									JOINT rRing1
									{
										OFFSET -4.762787 -0.121170 2.349089
										CHANNELS 3 Zrotation Xrotation Yrotation
										JOINT rRing2
										{
											OFFSET -3.380348 -1.337097 1.356700
											CHANNELS 3 Zrotation Xrotation Yrotation
											JOINT rRing3
											{
												OFFSET -1.430290 -1.499649 0.914224
												CHANNELS 3 Zrotation Xrotation Yrotation
												End Site
												{
													OFFSET -1.783272 -2.215851 -0.391895
												}
											}
										}
									}
									JOINT rPinky1
									{
										OFFSET -5.232559 -1.313721 0.336493
										CHANNELS 3 Zrotation Xrotation Yrotation
										JOINT rPinky2
										{
											OFFSET -2.217606 -1.389603 0.800693
											CHANNELS 3 Zrotation Xrotation Yrotation
											JOINT rPinky3
											{
												OFFSET -0.886887 -1.462280 0.774199
												CHANNELS 3 Zrotation Xrotation Yrotation
												End Site
												{
													OFFSET 14.139406 -2.625778 0.472826
												}
											}
										}
									}
								}
							}
						}
					}
				}
				JOINT lCollar
				{
					OFFSET 2.109295 21.452370 3.768136
					CHANNELS 3 Zrotation Xrotation Yrotation
					JOINT lShldr
					{
						OFFSET 11.491621 -2.568573 -4.940255
						CHANNELS 3 Zrotation Xrotation Yrotation
						JOINT lForeArm
						{
							OFFSET 28.789030 -0.213806 2.098380
							CHANNELS 3 Zrotation Xrotation Yrotation
							JOINT lHand
							{
								OFFSET 22.260895 -0.869583 10.391586
								CHANNELS 3 Zrotation Xrotation Yrotation
								JOINT lThumb1
								{
									OFFSET 0.628075 0.137405 2.362409
									CHANNELS 3 Zrotation Xrotation Yrotation
									JOINT lThumb2
									{
										OFFSET -0.085205 -0.600235 3.826079
										CHANNELS 3 Zrotation Xrotation Yrotation
										JOINT lThumb3
										{
											OFFSET 1.255478 -0.879211 2.439162
											CHANNELS 3 Zrotation Xrotation Yrotation
											End Site
											{
												OFFSET 2.963715 0.538574 4.059553
											}
										}
									}
								}
								JOINT lCarpal1
								{
									OFFSET 0.855530 1.026047 1.621985
									CHANNELS 3 Zrotation Xrotation Yrotation
									JOINT lIndex1
									{
										OFFSET 3.951324 0.390884 3.873290
										CHANNELS 3 Zrotation Xrotation Yrotation
										JOINT lIndex2
										{
											OFFSET 3.071884 -1.259598 2.506104
											CHANNELS 3 Zrotation Xrotation Yrotation
											JOINT lIndex3
											{
												OFFSET 1.394112 -1.446640 1.203302
												CHANNELS 3 Zrotation Xrotation Yrotation
												End Site
												{
													OFFSET 3.392448 -1.258026 0.533405
												}
											}
										}
									}
									JOINT lMid1
									{
										OFFSET 5.422974 0.107910 2.002650
										CHANNELS 3 Zrotation Xrotation Yrotation
										JOINT lMid2
										{
											OFFSET 3.599533 -1.323776 2.090647
											CHANNELS 3 Zrotation Xrotation Yrotation
											JOINT lMid3
											{
												OFFSET 1.360191 -1.598495 1.068055
												CHANNELS 3 Zrotation Xrotation Yrotation
												End Site
												{
													OFFSET 4.087769 -0.460876 0.069540
												}
											}
										}
									}
								}
								JOINT lCarpal2
								{
									OFFSET 1.942749 0.556229 -0.337217
									CHANNELS 3 Zrotation Xrotation Yrotation
									JOINT lRing1
									{
										OFFSET 4.762787 -0.121170 2.349089
										CHANNELS 3 Zrotation Xrotation Yrotation
										JOINT lRing2
										{
											OFFSET 3.380348 -1.337097 1.356700
											CHANNELS 3 Zrotation Xrotation Yrotation
											JOINT lRing3
											{
												OFFSET 1.430290 -1.499649 0.914224
												CHANNELS 3 Zrotation Xrotation Yrotation
												End Site
												{
													OFFSET 1.783272 -2.215851 -0.391895
												}
											}
										}
									}
									JOINT lPinky1
									{
										OFFSET 5.232559 -1.313721 0.336493
										CHANNELS 3 Zrotation Xrotation Yrotation
										JOINT lPinky2
										{
											OFFSET 2.217606 -1.389603 0.800693
											CHANNELS 3 Zrotation Xrotation Yrotation
											JOINT lPinky3
											{
												OFFSET 0.886887 -1.462280 0.774199
												CHANNELS 3 Zrotation Xrotation Yrotation
												End Site
												{
													OFFSET -10.295957 -17.050110 17.461308
												}
											}
										}
									}
								}
							}
						}
					}
				}
				JOINT rPectoral
				{
					OFFSET -6.358840 6.360771 6.369920
					CHANNELS 3 Zrotation Xrotation Yrotation
					End Site
					{
						OFFSET 10.295957 -17.050110 17.461308
					}
				}
				JOINT lPectoral
				{
					OFFSET 6.358840 6.360771 6.369920
					CHANNELS 3 Zrotation Xrotation Yrotation
					End Site
					{
						OFFSET 10.295957 -17.050110 17.461308
					}
				}
			}
		}
	}
}
MOTION
Frames:	5
Frame Time:	0.0333333
-0.744247 5.724833 43.425720 5.337109 1.899413 -12.072204 0.000000 0.000000 0.000000 -2.513985 -30.813368 10.769343 0.286454 27.327864 1.381595 -4.668203 23.656847 3.168116 14.102369 -32.401310 3.636777 0.000000 0.000000 0.000000 0.962276 -8.021688 18.222233 -0.980276 33.708366 -2.825701 12.850616 16.328270 -2.442972 -22.083715 -44.555515 -8.454038 0.000000 0.000000 0.000000 -6.578541 3.400473 12.282030 0.000000 0.000000 0.000000 -2.354237 -4.414175 5.603393 0.779054 -0.134350 -0.524180 0.889008 9.003842 -8.228692 0.000000 0.000000 0.000000 0.000000 0.000000 0.000000 0.000000 0.000000 0.000000 0.000000 0.000000 0.000000 0.000000 0.000000 0.000000 0.000000 0.000000 0.000000 0.000000 0.000000 0.000000 0.000000 0.000000 0.000000 0.000000 0.000000 0.000000 0.000000 0.000000 0.000000 0.000000 0.000000 0.000000 4.406326 -3.715728 -3.830840 68.157715 15.230726 5.977463 5.440416 -6.777792 20.597622 4.106514 3.032518 0.376698 1.584142 -2.167451 -10.140518 -0.086357 -0.189240 0.161860 0.000000 0.000000 0.000000 0.000000 0.000000 0.000000 8.908731 11.915336 -7.494103 39.761467 29.305340 -2.402473 17.569613 15.585754 -0.561504 10.343662 7.720590 -1.356965 42.186028 23.677301 2.380299 18.855330 11.060687 3.494150 0.000000 0.000000 0.000000 15.098474 3.532442 7.953526 43.041080 16.140005 11.386836 10.997870 3.146355 4.490901 24.466091 1.975107 11.823744 43.894100 10.207637 15.139244 23.894136 6.293583 10.688338 -3.382604 -0.504009 8.629349 -69.760773 2.149806 16.782436 11.096745 17.035978 -4.158962 23.150967 -15.345994 5.831223 -1.152828 -1.370316 3.740806 0.079971 -0.175215 -0.149887 0.000000 0.000000 0.000000 0.000000 0.000000 0.000000 6.096246 -0.619909 13.919824 -12.693586 9.879725 -1.559503 -14.123151 12.628190 0.072450 1.464577 0.052602 2.699929 -9.651417 5.223479 -2.103953 -17.615963 10.301536 -3.376259 0.000000 0.000000 0.000000 4.035941 -1.991436 -1.088028 -14.608835 4.386668 -5.104322 -14.955030 4.499378 -5.971385 4.902788 -4.267756 -3.357242 -14.914275 2.071630 -5.873225 -3.479495 0.617349 -1.674565 0.128015 -0.006325 -0.375891 -0.278975 -0.014867 0.819307 
-0.461277 5.972947 44.979164 6.147676 1.818061 -13.770374 0.000000 0.000000 0.000000 -3.722682 -29.104103 12.103670 0.423231 24.470728 -2.440082 -7.235775 24.563591 6.188962 14.084899 -32.369484 3.627892 0.000000 0.000000 0.000000 0.669679 -9.665298 18.703108 -0.989913 38.181641 -3.050470 12.316063 20.629242 -2.539661 -20.940128 -43.085785 -7.684487 0.000000 0.000000 0.000000 -6.930373 3.058763 13.313847 0.000000 0.000000 0.000000 -2.512996 -4.327834 5.578085 0.824966 -0.118771 -0.446403 1.142090 8.692946 -8.328843 0.000000 0.000000 0.000000 0.000000 0.000000 0.000000 0.000000 0.000000 0.000000 0.000000 0.000000 0.000000 0.000000 0.000000 0.000000 0.000000 0.000000 0.000000 0.000000 0.000000 0.000000 0.000000 0.000000 0.000000 0.000000 0.000000 0.000000 0.000000 0.000000 0.000000 0.000000 0.000000 0.000000 4.497274 -3.499586 -3.526098 68.155151 15.682102 5.752826 4.694901 -6.046678 22.058689 4.784082 3.535793 0.418037 1.584170 -2.167053 -10.129122 -0.086357 -0.189240 0.161860 0.000000 0.000000 0.000000 0.000000 0.000000 0.000000 8.972202 11.973786 -7.478478 39.854557 29.361443 -2.431816 17.647436 15.651481 -0.574616 10.416699 7.765297 -1.337424 42.278439 23.725571 2.365706 18.939312 11.112184 3.501546 0.000000 0.000000 0.000000 15.180886 3.563337 7.967886 43.129234 16.180351 11.396951 11.085657 3.175154 4.524619 24.549461 1.997651 11.846326 43.982548 10.239459 15.161141 23.979435 6.324317 10.722161 -3.342456 -0.496200 8.216838 -69.601257 1.526188 16.860836 11.658740 17.950916 -4.220330 22.156265 -14.777874 5.466629 -1.152783 -1.370216 3.737130 0.079971 -0.175215 -0.149887 0.000000 0.000000 0.000000 0.000000 0.000000 0.000000 6.019416 -0.559736 13.885542 -12.790695 9.956168 -1.562966 -14.224181 12.716115 0.084208 1.377860 0.098231 2.667725 -9.757147 5.282911 -2.122242 -17.727118 10.369551 -3.387506 0.000000 0.000000 0.000000 3.939487 -1.963360 -1.115165 -14.719097 4.424970 -5.138865 -15.070512 4.540536 -6.013354 4.803670 -4.257918 -3.392575 -15.027287 2.093216 -5.915762 -3.596862 0.639995 -1.730528 0.118163 -0.005809 -0.346961 -0.265668 -0.014067 0.780213 
0.001051 6.566211 46.430077 7.615259 2.109486 -16.649755 0.000000 0.000000 0.000000 -5.209967 -27.636717 13.531545 0.591502 22.820866 -3.987296 -8.339707 23.906448 9.031490 14.086741 -32.372829 3.628832 0.000000 0.000000 0.000000 -1.416648 -10.524131 18.845123 -0.943535 41.436787 -2.066592 10.870098 19.834841 -1.653207 -17.044571 -37.420624 -5.248580 0.000000 0.000000 0.000000 -7.322001 1.778382 14.242081 0.000000 0.000000 0.000000 -2.738190 -3.852053 5.559711 0.782128 -0.089814 -0.165298 1.215062 7.806972 -7.850861 0.000000 0.000000 0.000000 0.000000 0.000000 0.000000 0.000000 0.000000 0.000000 0.000000 0.000000 0.000000 0.000000 0.000000 0.000000 0.000000 0.000000 0.000000 0.000000 0.000000 0.000000 0.000000 0.000000 0.000000 0.000000 0.000000 0.000000 0.000000 0.000000 0.000000 0.000000 0.000000 0.000000 4.926684 -3.188659 -2.909351 68.320480 15.922063 4.960317 2.468326 -4.258917 22.701962 5.465177 4.042127 0.453595 1.584366 -2.163885 -10.040964 -0.086357 -0.189240 0.161860 0.000000 0.000000 0.000000 0.000000 0.000000 0.000000 8.944983 11.948715 -7.485167 39.814625 29.337383 -2.419229 17.614042 15.623281 -0.568986 10.385381 7.746123 -1.345805 42.238781 23.704874 2.371978 18.903284 11.090086 3.498382 0.000000 0.000000 0.000000 15.145536 3.550087 7.961735 43.091412 16.163055 11.392622 11.048004 3.162786 4.510161 24.513687 1.987972 11.836654 43.944599 10.225801 15.151757 23.942841 6.311131 10.707664 -3.324543 -0.497103 7.258854 -69.356400 0.517288 16.711351 12.012640 18.550520 -4.236899 20.080090 -13.560991 4.734689 -1.153233 -1.371295 3.775142 0.079971 -0.175215 -0.149887 0.000000 0.000000 0.000000 0.000000 0.000000 0.000000 5.741464 -0.341410 13.762128 -13.098407 10.198342 -1.573059 -14.509212 12.963793 0.118254 1.064064 0.263903 2.551658 -10.092008 5.471387 -2.179517 -18.040411 10.561349 -3.418502 0.000000 0.000000 0.000000 3.590350 -1.861295 -1.213045 -15.068228 4.546698 -5.247806 -15.395839 4.656959 -6.131207 4.444863 -4.221785 -3.520370 -15.385242 2.162171 -6.050225 -3.927398 0.704418 -1.887952 0.098520 -0.004793 -0.289275 -0.234820 -0.012247 0.689594 
0.645683 7.156528 49.510517 9.552739 2.433171 -20.263842 0.000000 0.000000 0.000000 -7.507246 -26.101576 13.663259 0.950773 20.557186 -3.068399 -9.065214 23.246302 11.042051 14.093454 -32.385071 3.632246 0.000000 0.000000 0.000000 -6.282143 -12.611655 17.994450 -0.784504 44.463161 -0.136900 9.683306 17.286474 1.366956 -15.907785 -35.560436 -4.599929 0.000000 0.000000 0.000000 -7.840828 -0.126419 14.898702 0.000000 0.000000 0.000000 -3.065705 -2.908292 5.553052 0.645867 -0.051217 0.288332 1.146704 6.611880 -6.926487 0.000000 0.000000 0.000000 0.000000 0.000000 0.000000 0.000000 0.000000 0.000000 0.000000 0.000000 0.000000 0.000000 0.000000 0.000000 0.000000 0.000000 0.000000 0.000000 0.000000 0.000000 0.000000 0.000000 0.000000 0.000000 0.000000 0.000000 0.000000 0.000000 0.000000 0.000000 0.000000 0.000000 5.624243 -2.658052 -2.033617 68.671074 15.918756 3.518958 -0.679476 -1.806955 22.808897 6.120915 4.529864 0.482134 1.584756 -2.157485 -9.862430 -0.086357 -0.189240 0.161860 0.000000 0.000000 0.000000 0.000000 0.000000 0.000000 8.809897 11.824394 -7.518559 39.616570 29.217859 -2.356999 17.448486 15.483398 -0.541289 10.229957 7.651027 -1.387492 42.042137 23.602051 2.402871 18.724562 10.980524 3.482495 0.000000 0.000000 0.000000 14.970158 3.484393 7.931099 42.903744 16.077188 11.370940 10.861131 3.101625 4.438339 24.336279 1.940078 11.788509 43.756306 10.158134 15.105045 23.761286 6.245836 10.635584 -3.214081 -0.527410 5.799728 -69.059296 -0.897850 16.085476 11.764639 18.254841 -4.086775 16.723003 -11.507414 3.638041 -1.154388 -1.374139 3.875238 0.079971 -0.175215 -0.149887 0.000000 0.000000 0.000000 0.000000 0.000000 0.000000 5.221361 0.069738 13.533474 -13.659781 10.639894 -1.588083 -15.014631 13.401598 0.181669 0.476340 0.576384 2.336397 -10.702137 5.815774 -2.281077 -18.594999 10.901102 -3.470771 0.000000 0.000000 0.000000 2.935962 -1.668233 -1.394964 -15.704142 4.770269 -5.444499 -15.971011 4.864572 -6.338158 3.772033 -4.151871 -3.759444 -16.037268 2.290004 -6.294219 -4.511809 0.820632 -2.165577 0.070621 -0.003385 -0.207352 -0.187826 -0.009569 0.551554 
1.217355 7.065082 52.665272 10.933737 2.717973 -22.430439 0.000000 0.000000 0.000000 -9.589133 -26.076385 12.293112 0.836791 21.749176 -3.371351 -8.896194 20.448839 14.202202 14.043053 -32.293175 3.606627 0.000000 0.000000 0.000000 -10.916570 -17.087702 14.858048 -0.692635 48.580956 1.305987 7.635962 15.092439 6.081711 -15.677277 -35.171188 -4.472243 0.000000 0.000000 0.000000 -7.966377 -1.767547 14.194838 0.000000 0.000000 0.000000 -3.406488 -1.530819 5.581088 0.434487 -0.027342 0.713013 0.982777 5.756519 -5.713162 0.000000 0.000000 0.000000 0.000000 0.000000 0.000000 0.000000 0.000000 0.000000 0.000000 0.000000 0.000000 0.000000 0.000000 0.000000 0.000000 0.000000 0.000000 0.000000 0.000000 0.000000 0.000000 0.000000 0.000000 0.000000 0.000000 0.000000 0.000000 0.000000 0.000000 0.000000 0.000000 0.000000 6.447077 -2.034610 -1.734298 69.139839 15.606465 1.631138 -3.076105 0.133645 22.367016 6.143398 4.546595 0.483026 1.585264 -2.148396 -9.609303 -0.086357 -0.189240 0.161860 0.000000 0.000000 0.000000 0.000000 0.000000 0.000000 8.501746 11.541138 -7.595753 39.166557 28.944702 -2.217205 17.071539 15.164040 -0.479758 9.875304 7.434566 -1.483517 41.594662 23.367311 2.471756 18.317047 10.730776 3.444990 0.000000 0.000000 0.000000 14.570039 3.334908 7.860456 42.476097 15.881708 11.320455 10.434655 2.962966 4.273797 23.931490 1.831372 11.678154 43.327038 10.004490 14.997779 23.346928 6.097723 10.470431 -3.112374 -0.658705 4.325826 -68.885971 -2.134119 14.974605 10.416654 16.208799 -3.748436 12.895504 -9.044783 2.526886 -1.156392 -1.379084 4.049556 0.079971 -0.175215 -0.149887 0.000000 0.000000 0.000000 0.000000 0.000000 0.000000 4.508679 0.638530 13.225090 -14.411245 11.230258 -1.601309 -15.671135 13.967590 0.269862 -0.330125 1.009705 2.045555 -11.517330 6.277730 -2.411151 -19.313517 11.341695 -3.533549 0.000000 0.000000 0.000000 2.037050 -1.399324 -1.641501 -16.553236 5.072473 -5.703616 -16.714846 5.136445 -6.603068 2.847227 -4.051157 -4.086867 -16.908035 2.465177 -6.618057 -5.267772 0.975310 -2.523303 0.061312 -0.002924 -0.180018 -0.140467 -0.006986 0.412460 
